<svg xmlns="http://www.w3.org/2000/svg" width="31.04" height="19.133" viewBox="0 0 31.04 19.133">
  <g id="Group_41" data-name="Group 41" transform="translate(-756.616 -414.047)">
    <path id="Path_30" data-name="Path 30" d="M861.828,432.28c-.022.044-.048.086-.067.131a1.122,1.122,0,0,1-.986.739,1,1,0,0,1-1.01-.529,7.158,7.158,0,0,0-3.455-3.012,18.478,18.478,0,0,0-2.774-.926,24.224,24.224,0,0,0-5.93-.513c-.006.122-.015.228-.015.334,0,1.161.006,2.323,0,3.484a1.109,1.109,0,0,1-1.5,1.108,1.737,1.737,0,0,1-.53-.39q-4.109-4.1-8.208-8.2a1.112,1.112,0,0,1,.006-1.787q3.351-3.354,6.705-6.7c.514-.514,1.03-1.026,1.542-1.543a1.079,1.079,0,0,1,1.284-.326,1.148,1.148,0,0,1,.7,1.165c-.007,1.111,0,2.222,0,3.332v.344c.572.049,1.114.081,1.653.144a14.953,14.953,0,0,1,7.319,2.715,12.745,12.745,0,0,1,4.9,7.659c.156.676.249,1.366.371,2.049Zm-22.085-8.688,5.662,5.662c0-.661-.006-1.377,0-2.092a1.108,1.108,0,0,1,.989-1.116c.22-.029.442-.048.663-.063a24.654,24.654,0,0,1,5.761.295,15.179,15.179,0,0,1,5.9,2.141,1.117,1.117,0,0,0,.157.064c-.034-.1-.049-.141-.067-.186a10.43,10.43,0,0,0-6.278-6.125,16.713,16.713,0,0,0-5.787-.984c-.956-.012-1.339-.4-1.339-1.35,0-.641,0-1.283,0-1.907Z" transform="translate(-74.172)" fill="#f5f5f5"/>
    <path id="Path_31" data-name="Path 31" d="M759.236,423.661a3.821,3.821,0,0,1,.353.27q3.632,3.628,7.261,7.258a1.182,1.182,0,0,1,.4,1.168,1.1,1.1,0,0,1-1.746.627,2.857,2.857,0,0,1-.29-.265q-4.059-4.057-8.117-8.116a1.185,1.185,0,0,1,0-1.912q4.079-4.08,8.157-8.161a1.208,1.208,0,0,1,1.105-.43,1.1,1.1,0,0,1,.687,1.777,3.006,3.006,0,0,1-.266.289q-3.6,3.6-7.195,7.2C759.5,423.447,759.406,423.518,759.236,423.661Z" transform="translate(0 -0.032)" fill="#f5f5f5"/>
  </g>
</svg>
